<svg version="1" xmlns="http://www.w3.org/2000/svg" width="682.667" height="682.667" viewBox="0 0 512.000000 512.000000"><path d="M103 141.7c-12.7 1.2-27.2 5.4-38.7 11.2-12.9 6.4-20.3 11.9-31 22.8-16 16.3-26.7 36.1-31 57.3-2.1 10.2-2.4 30.7-.7 41.6C9 321.3 47 360.3 93.5 369c3.3.6 11.4 1.3 18 1.5 32 1 59.3-9.1 82.3-30.6 5.1-4.7 13.8-12.5 23.6-20.9 1.6-1.4 3.4-3 4-3.6 1-.9 10.1-8.9 28-24.8 3.8-3.4 7.7-6.8 8.5-7.6 2-1.9 20.2-18.4 25.5-23.1 2.1-1.9 4.6-4.1 5.5-5 .9-.8 12.6-11.2 26.1-23 21.9-19.1 29.9-26.1 33.4-29.4 16.2-15.4 42.2-22 65.5-16.7 21.1 4.7 40 20.4 49.1 40.5 9.7 21.8 7.6 49.6-5.3 69-14.3 21.4-36.4 33.1-61.6 32.6-19.4-.4-34.7-6.6-49.7-20.2-10.6-9.7-25.5-21.7-26.9-21.7-.7 0-1.5.3-1.7.8-.1.4-6.7 6.3-14.5 13.1-7.9 6.9-14.3 12.8-14.3 13.2 0 .4 1.5 1.9 3.3 3.4 3 2.6 11.6 10.3 27.1 24.4 28.7 26.1 66.9 35.7 106.1 26.5 31.1-7.2 61.3-32.3 75.5-62.7 14.6-31.1 14.2-69.4-1-99.7-13.2-26.2-39.1-49-65.5-57.8-22-7.4-49.6-7.8-72-1.1-12.8 3.8-29.4 12.7-37.5 20-6.2 5.6-12.1 10.9-19 17-30.5 26.9-54.4 48.1-59.5 52.8-3.3 3.1-9.8 9-14.4 13.1s-9.4 8.4-10.6 9.5c-1.3 1.1-3.8 3.3-5.6 4.9-3.9 3.4-19.6 17.3-24.9 22-1.9 1.7-5.5 4.8-8 7-10.9 9.4-15.9 13.8-19.4 17.1-12.9 12.1-29.3 18.3-48.6 18.3-21.2 0-37.2-6.7-51.8-21.8-12.9-13.2-19.1-27.8-20-46.7-.9-22 5.5-38.9 20.8-54.2 15.2-15.3 30.9-21.4 53.5-20.7 14.5.4 24.6 3.3 34.7 9.8 6.1 3.9 21.8 17.1 32.8 27.5 2.5 2.4 5.1 4.3 5.8 4.3 1.1 0 11.7-8.4 15.2-12 .3-.3 4.2-3.6 8.8-7.4 4.5-3.8 8.2-7.3 8.2-7.7 0-.6-3.9-4.2-13.6-12.6-1.2-1-6.2-5.5-11.2-10.1-11.5-10.6-15-13.3-23.7-18.7-19.7-12.3-46-18.1-71.5-15.8z"/></svg>