<?xml version="1.0" standalone="no"?>
<!DOCTYPE svg PUBLIC "-//W3C//DTD SVG 20010904//EN"
 "http://www.w3.org/TR/2001/REC-SVG-20010904/DTD/svg10.dtd">
<svg version="1.0" xmlns="http://www.w3.org/2000/svg"
 width="1024.000000pt" height="1024.000000pt" viewBox="0 0 1024.000000 1024.000000"
 preserveAspectRatio="xMidYMid meet">
<metadata>
Created by potrace 1.11, written by Peter Selinger 2001-2013
</metadata>
<g transform="translate(0.000000,1024.000000) scale(0.100000,-0.100000)"
fill="#000000" stroke="none">
<path d="M2070 8713 c-123 -9 -280 -51 -369 -101 -261 -143 -441 -408 -468
-687 -9 -90 -9 -1918 0 -2010 10 -109 34 -192 82 -290 103 -209 300 -385 508
-454 141 -47 186 -50 807 -51 322 0 603 -3 625 -7 108 -15 245 -113 304 -217
55 -96 62 -140 57 -356 -2 -107 -7 -208 -10 -225 -20 -91 -48 -187 -70 -244
-121 -306 -420 -586 -736 -689 -137 -45 -205 -53 -463 -57 -273 -4 -329 -13
-389 -63 -51 -42 -67 -62 -96 -122 l-26 -55 -1 -343 c-1 -376 3 -412 54 -486
40 -57 92 -95 160 -116 49 -16 91 -18 326 -15 149 2 279 6 290 8 11 3 45 8 75
11 123 14 233 39 395 88 642 196 1154 635 1449 1242 127 263 206 534 234 809
10 97 9 3617 -1 3686 -20 138 -92 295 -190 414 -145 176 -324 282 -537 318
-57 10 -304 13 -1025 13 -522 1 -966 0 -985 -1z"/>
<path d="M6265 8713 c-194 -16 -345 -70 -475 -169 -193 -148 -303 -316 -351
-539 -18 -86 -19 -136 -16 -1120 l2 -1030 28 -88 c114 -364 412 -608 783 -642
27 -2 303 -5 614 -5 311 -1 586 -5 612 -10 149 -29 290 -160 334 -309 25 -84
24 -366 -1 -501 -45 -244 -155 -449 -336 -627 -147 -144 -277 -227 -449 -286
-145 -49 -217 -59 -492 -63 -274 -4 -304 -9 -374 -60 -51 -38 -100 -114 -114
-174 -8 -38 -11 -159 -8 -400 3 -343 3 -345 27 -393 34 -65 85 -115 151 -146
55 -25 57 -26 295 -25 221 0 372 6 435 18 14 2 44 7 67 10 23 3 72 12 110 21
37 9 78 19 90 21 12 2 34 9 48 14 14 5 25 8 25 5 0 -7 169 54 285 103 427 179
789 479 1049 870 167 251 315 600 362 857 25 138 35 216 41 314 8 148 8 3487
0 3561 -22 188 -88 339 -213 483 -139 161 -308 259 -514 298 -48 9 -310 12
-1025 13 -528 1 -973 0 -990 -1z"/>
</g>
</svg>
